<mxfile host="app.diagrams.net" modified="2024-01-08T09:11:17.859Z" agent="Mozilla/5.0 (Windows NT 10.0; Win64; x64) AppleWebKit/537.36 (KHTML, like Gecko) Chrome/120.0.0.0 Safari/537.36" version="22.1.16" etag="C7WFt3W-6fJ_XryDqojw" type="github">
  <diagram name="第 1 页" id="ziQjSHZbJJ-ghKZxTFP2">
    <mxGraphModel>
      <root>
        <mxCell id="0" />
        <mxCell id="1" parent="0" />
      </root>
    </mxGraphModel>
  </diagram>
</mxfile>
